<?xml version="1.0" standalone="no"?>
<!DOCTYPE svg PUBLIC "-//W3C//DTD SVG 1.1//EN" "http://www.w3.org/Graphics/SVG/1.1/DTD/svg11.dtd">
<svg width="30" height="36" viewBox="-15 -36 30 36" xmlns="http://www.w3.org/2000/svg" version="1.1">
<title>OpenSCAD Model</title>
<path d="
M 12.5,-36 L 11.5,-36 L 11.2487,-33.609 L 10.5058,-31.3225 L 9.30368,-29.2405 L 7.69499,-27.4538
 L 5.75,-26.0407 L 3.55368,-25.0628 L 1.20207,-24.563 L -1.20207,-24.563 L -3.55368,-25.0628 L -5.75,-26.0407
 L -7.69499,-27.4538 L -9.30368,-29.2405 L -10.5058,-31.3225 L -11.2487,-33.609 L -11.5,-36 L -12.5,-36
 L -14.5,-0 L -11.5,-0 L -11.2487,-2.39098 L -10.5058,-4.67746 L -9.30368,-6.75952 L -7.69499,-8.54616
 L -5.74998,-9.95929 L -3.55368,-10.9371 L -1.20207,-11.437 L 1.20207,-11.437 L 3.55368,-10.9371 L 5.75,-9.95929
 L 7.69499,-8.54616 L 9.30368,-6.75952 L 10.5058,-4.67746 L 11.2487,-2.39098 L 11.5,-0 L 14.5,-0
 z
M 5.54198,-19.8692 L 6.54044,-19.9247 L 6.74846,-16.1805 L 5.75,-16.125 z
M -6.75,-16.125 L -6.54198,-19.8692 L -5.54352,-19.8138 L -5.75153,-16.0695 z
" stroke="black" fill="lightgray" stroke-width="0.5"/></svg>
